<?xml version="1.0" standalone="no"?>
<!DOCTYPE svg PUBLIC "-//W3C//DTD SVG 20010904//EN"
 "http://www.w3.org/TR/2001/REC-SVG-20010904/DTD/svg10.dtd">
<svg version="1.0" xmlns="http://www.w3.org/2000/svg"
 width="660.000000pt" height="660.000000pt" viewBox="0 0 660.000000 660.000000"
 preserveAspectRatio="xMidYMid meet">
<metadata>
Created by potrace 1.14, written by Peter Selinger 2001-2017
</metadata>
<g transform="translate(0.000000,660.000000) scale(0.100000,-0.100000)"
fill="#000000" stroke="none">
<path d="M13 5889 c-10 -10 -13 -438 -13 -2068 0 -1131 4 -2062 9 -2069 9 -15
104 -41 281 -77 253 -50 458 -74 970 -110 1074 -76 1394 -154 1736 -426 l62
-49 206 0 206 0 2 -222 3 -223 59 103 c32 57 62 100 66 95 4 -4 36 -104 71
-221 l64 -213 5 417 5 417 90 48 c50 27 151 68 225 93 268 89 560 130 1280
181 512 36 717 60 970 110 177 36 272 62 281 77 5 7 9 938 9 2069 0 1841 -2
2058 -15 2069 -12 10 -62 12 -223 7 -642 -20 -1584 -144 -2097 -277 -411 -107
-640 -233 -887 -488 l-78 -80 -82 85 c-284 291 -555 420 -1142 542 -521 109
-1312 202 -1836 217 -171 5 -218 4 -227 -7z m512 -110 c577 -39 1296 -140
1705 -240 226 -56 353 -99 505 -174 158 -78 265 -158 408 -303 l107 -109 0
-1679 0 -1679 -77 76 c-379 369 -783 486 -1908 554 -212 13 -486 37 -633 56
-144 18 -413 67 -494 89 l-38 11 0 1710 0 1711 138 -6 c75 -4 205 -11 287 -17z
m5973 -1691 l2 -1707 -37 -11 c-82 -22 -351 -71 -495 -89 -147 -19 -421 -43
-633 -56 -733 -44 -1190 -120 -1454 -241 -41 -19 -75 -34 -77 -34 -2 0 -4 762
-4 1694 l0 1693 99 46 c288 134 742 235 1466 326 375 48 886 89 1070 87 l60
-1 3 -1707z m-3088 -2433 l-60 -60 0 1678 0 1678 58 61 57 60 3 -1678 2 -1679
-60 -60z"/>
<path d="M590 5066 c0 -2 182 -286 405 -630 l404 -625 -420 -647 c-232 -357
-423 -654 -426 -661 -4 -10 55 -13 310 -13 l314 0 284 471 c283 470 283 470
297 442 44 -84 486 -890 494 -900 8 -10 90 -13 350 -13 294 0 339 2 335 15 -5
10 -570 916 -823 1316 l-23 37 400 602 c219 330 399 603 399 606 0 2 -141 4
-312 4 l-313 0 -240 -397 c-132 -218 -247 -405 -255 -415 -14 -17 -33 13 -257
394 l-241 413 -341 3 c-188 1 -341 0 -341 -2z"/>
<path d="M4638 5260 c-97 -10 -204 -21 -237 -25 l-61 -7 2 -1366 3 -1367 270
0 270 0 3 663 2 663 84 39 c101 48 189 70 281 70 128 0 189 -33 221 -118 16
-43 18 -102 22 -684 l3 -638 270 0 269 0 0 706 c0 774 -1 786 -61 905 -93 186
-320 274 -619 240 -130 -16 -249 -50 -369 -107 -51 -24 -95 -44 -97 -44 -2 0
-4 245 -4 545 l0 545 -37 -1 c-21 -1 -117 -9 -215 -19z"/>
</g>
</svg>
